  0
SECTION
  2
HEADER
  9
$ACADVER
  1
AC1009
  9
$INSBASE
 10
0.0
 20
0.0
 30
0.0
  9
$EXTMIN
 10
0.0
 20
0.0
 30
0.0
  9
$EXTMAX
 10
0.0
 20
0.0
 30
0.0
  0
ENDSEC
  0
SECTION
  2
TABLES
  0
TABLE
  2
VPORT
 70
1
  0
VPORT
  2
*ACTIVE
 70
0
 10
0.0
 20
0.0
 11
1.0
 21
1.0
 12
-5.0
 22
1.0
 13
0.0
 23
0.0
 14
0.1
 24
0.1
 15
0.1
 25
0.1
 16
0.0
 26
0.0
 36
1.0
 17
0.0
 27
0.0
 37
0.0
 40
10.0
 41
1.0
 42
50.0
 43
0.0
 44
0.0
 50
0.0
 51
0.0
 71
0
 72
100
 73
1
 74
1
 75
0
 76
0
 77
0
 78
0
  0
ENDTAB
  0
TABLE
  2
LTYPE
 70
8
  0
LTYPE
  2
CONTINUOUS
 70
0
  3
Solid line
 72
65
 73
0
 40
0.0
  0
LTYPE
  2
DOT
 70
0
  3
. . . . . . .
 72
65
 73
2
 40
0.25
 49
0.0
 49
-0.25
  0
LTYPE
  2
DASHED
 70
0
  3
__ __ __ __ __
 72
65
 73
2
 40
0.8
 49
0.5
 49
-0.3
  0
LTYPE
  2
DASHDOT
 70
0
  3
__ . __ . __ .
 72
65
 73
4
 40
1.0
 49
0.5
 49
-0.25
 49
0.0
 49
-0.25
  0
LTYPE
  2
DIVIDE
 70
0
  3
____ . . ____ . . 
 72
65
 73
6
 40
1.25
 49
0.5
 49
-0.25
 49
0.0
 49
-0.25
 49
0.0
 49
-0.25
  0
LTYPE
  2
BORDER
 70
0
  3
__ __ . __ __ . 
 72
65
 73
6
 40
1.75
 49
0.5
 49
-0.25
 49
0.5
 49
-0.25
 49
0.0
 49
-0.25
  0
LTYPE
  2
HIDDEN
 70
0
  3
__ __ __ __ __
 72
65
 73
2
 40
0.4
 49
0.25
 49
-0.25
  0
LTYPE
  2
CENTER
 70
0
  3
____ _ ____ _ __
 72
65
 73
4
 40
2.0
 49
1.25
 49
-0.25
 49
0.25
 49
-0.25
  0
ENDTAB
  0
TABLE
  2
LAYER
 70
1
  0
LAYER
  2
PYDXF
 70
64
 62
7
  6
continuous
  0
ENDTAB
  0
TABLE
  2
STYLE
 70
1
  0
STYLE
  2
STANDARD
 70
0
 40
0
 41
1.0
 50
0.0
 71
0
 42
1
 3
ARIAL.TTF
 4

  0
ENDTAB
  0
TABLE
  2
VIEW
 70
1
  0
VIEW
  2
BF_TOPVIEW
 70
0
 40
120.0
 10
0.0
 20
0.0
 41
200.0
 11
0.0
 21
0.0
 31
1.0
 12
0.0
 22
0.0
 32
0.0
 42
50.0
 43
0.0
 44
0.0
 50
0.0
 71
0
  0
ENDTAB
  0
ENDSEC
  0
SECTION
  2
BLOCKS
  0
ENDSEC
  0
SECTION
  2
ENTITIES
  0
LINE
  8
0
 10
-0.007285617291927338
 20
0.031386539340019226
 30
5.8338046073913574e-05
 11
-0.013138326816260815
 21
0.030810099095106125
 31
5.8338046073913574e-05
  0
LINE
  8
0
 10
-0.013138326816260815
 20
0.030810099095106125
 30
5.8338046073913574e-05
 11
-0.018766120076179504
 21
0.029102927073836327
 31
5.8338046073913574e-05
  0
LINE
  8
0
 10
-0.018766120076179504
 20
0.029102927073836327
 30
5.8338046073913574e-05
 11
-0.023952724412083626
 21
0.026330629363656044
 31
5.8338046073913574e-05
  0
LINE
  8
0
 10
-0.023952724412083626
 20
0.026330629363656044
 30
5.8338046073913574e-05
 11
-0.02849881909787655
 21
0.02259974367916584
 31
5.8338046073913574e-05
  0
LINE
  8
0
 10
-0.02849881909787655
 20
0.02259974367916584
 30
5.8338046073913574e-05
 11
-0.0322297066450119
 21
0.018053647130727768
 31
5.8338046073913574e-05
  0
LINE
  8
0
 10
-0.0322297066450119
 20
0.018053647130727768
 30
5.8338046073913574e-05
 11
-0.035002000629901886
 21
0.012867044657468796
 31
5.8338046073913574e-05
  0
LINE
  8
0
 10
-0.035002000629901886
 20
0.012867044657468796
 30
5.8338046073913574e-05
 11
-0.036709174513816833
 21
0.007239252328872681
 31
5.8338046073913574e-05
  0
LINE
  8
0
 10
-0.036709174513816833
 20
0.007239252328872681
 30
5.8338046073913574e-05
 11
-0.03728561848402023
 21
0.0013865440851077437
 31
5.8338046073913574e-05
  0
LINE
  8
0
 10
-0.03728561848402023
 20
0.0013865440851077437
 30
5.8338046073913574e-05
 11
-0.036709174513816833
 21
-0.0044661639258265495
 31
5.8338046073913574e-05
  0
LINE
  8
0
 10
-0.036709174513816833
 20
-0.0044661639258265495
 30
5.8338046073913574e-05
 11
-0.035002004355192184
 21
-0.010093956254422665
 31
5.8338046073913574e-05
  0
LINE
  8
0
 10
-0.035002004355192184
 20
-0.010093956254422665
 30
5.8338046073913574e-05
 11
-0.0322297066450119
 21
-0.01528056338429451
 31
5.8338046073913574e-05
  0
LINE
  8
0
 10
-0.0322297066450119
 20
-0.01528056338429451
 30
5.8338046073913574e-05
 11
-0.02849881909787655
 21
-0.019826659932732582
 31
5.8338046073913574e-05
  0
LINE
  8
0
 10
-0.02849881909787655
 20
-0.019826659932732582
 30
5.8338046073913574e-05
 11
-0.023952722549438477
 21
-0.023557547479867935
 31
5.8338046073913574e-05
  0
LINE
  8
0
 10
-0.023952722549438477
 20
-0.023557547479867935
 30
5.8338046073913574e-05
 11
-0.018766116350889206
 21
-0.026329847052693367
 31
5.8338046073913574e-05
  0
LINE
  8
0
 10
-0.018766116350889206
 20
-0.026329847052693367
 30
5.8338046073913574e-05
 11
-0.013138320297002792
 21
-0.028037017211318016
 31
5.8338046073913574e-05
  0
LINE
  8
0
 10
-0.013138320297002792
 20
-0.028037017211318016
 30
5.8338046073913574e-05
 11
-0.007285607513040304
 21
-0.028613457456231117
 31
5.8338046073913574e-05
  0
LINE
  8
0
 10
-0.007285607513040304
 20
-0.028613457456231117
 30
5.8338046073913574e-05
 11
-0.0014328956604003906
 21
-0.028037013486027718
 31
5.8338046073913574e-05
  0
LINE
  8
0
 10
-0.0014328956604003906
 20
-0.028037013486027718
 30
5.8338046073913574e-05
 11
0.004194898530840874
 21
-0.02632983773946762
 31
5.8338046073913574e-05
  0
LINE
  8
0
 10
0.004194898530840874
 20
-0.02632983773946762
 30
5.8338046073913574e-05
 11
0.009381504729390144
 21
-0.02355753630399704
 31
5.8338046073913574e-05
  0
LINE
  8
0
 10
0.009381504729390144
 20
-0.02355753630399704
 30
5.8338046073913574e-05
 11
0.013927599415183067
 21
-0.019826648756861687
 31
5.8338046073913574e-05
  0
LINE
  8
0
 10
0.013927599415183067
 20
-0.019826648756861687
 30
5.8338046073913574e-05
 11
0.017658483237028122
 21
-0.015280546620488167
 31
5.8338046073913574e-05
  0
LINE
  8
0
 10
0.017658483237028122
 20
-0.015280546620488167
 30
5.8338046073913574e-05
 11
0.020430777221918106
 21
-0.010093938559293747
 31
5.8338046073913574e-05
  0
LINE
  8
0
 10
0.020430777221918106
 20
-0.010093938559293747
 30
5.8338046073913574e-05
 11
0.022137945517897606
 21
-0.004466141574084759
 31
5.8338046073913574e-05
  0
LINE
  8
0
 10
0.022137945517897606
 20
-0.004466141574084759
 30
5.8338046073913574e-05
 11
0.02271438203752041
 21
0.001386570860631764
 31
5.8338046073913574e-05
  0
LINE
  8
0
 10
0.02271438203752041
 20
0.001386570860631764
 30
5.8338046073913574e-05
 11
0.02213793434202671
 21
0.007239282131195068
 31
5.8338046073913574e-05
  0
LINE
  8
0
 10
0.02213793434202671
 20
0.007239282131195068
 30
5.8338046073913574e-05
 11
0.020430754870176315
 21
0.012867075391113758
 31
5.8338046073913574e-05
  0
LINE
  8
0
 10
0.020430754870176315
 20
0.012867075391113758
 30
5.8338046073913574e-05
 11
0.017658449709415436
 21
0.018053678795695305
 31
5.8338046073913574e-05
  0
LINE
  8
0
 10
0.017658449709415436
 20
0.018053678795695305
 30
5.8338046073913574e-05
 11
0.013927558436989784
 21
0.02259977161884308
 31
5.8338046073913574e-05
  0
LINE
  8
0
 10
0.013927558436989784
 20
0.02259977161884308
 30
5.8338046073913574e-05
 11
0.009381456300616264
 21
0.026330651715397835
 31
5.8338046073913574e-05
  0
LINE
  8
0
 10
0.009381456300616264
 20
0.026330651715397835
 30
5.8338046073913574e-05
 11
0.004194845445454121
 21
0.02910294383764267
 31
5.8338046073913574e-05
  0
LINE
  8
0
 10
0.004194845445454121
 20
0.02910294383764267
 30
5.8338046073913574e-05
 11
-0.0014329529367387295
 21
0.03081010840833187
 31
5.8338046073913574e-05
  0
LINE
  8
0
 10
-0.007285617291927338
 20
0.031386539340019226
 30
5.8338046073913574e-05
 11
-0.0014329529367387295
 21
0.03081010840833187
 31
5.8338046073913574e-05
  0
LINE
  8
0
 10
-0.007285617291927338
 20
0.02638654038310051
 30
5.8338046073913574e-05
 11
-0.012162875384092331
 21
0.025906171649694443
 31
5.8338046073913574e-05
  0
LINE
  8
0
 10
-0.012162875384092331
 20
0.025906171649694443
 30
5.8338046073913574e-05
 11
-0.01685270294547081
 21
0.02448352985084057
 31
5.8338046073913574e-05
  0
LINE
  8
0
 10
-0.01685270294547081
 20
0.02448352985084057
 30
5.8338046073913574e-05
 11
-0.021174874156713486
 21
0.022173281759023666
 31
5.8338046073913574e-05
  0
LINE
  8
0
 10
-0.021174874156713486
 20
0.022173281759023666
 30
5.8338046073913574e-05
 11
-0.02496328577399254
 21
0.01906421035528183
 31
5.8338046073913574e-05
  0
LINE
  8
0
 10
-0.02496328577399254
 20
0.01906421035528183
 30
5.8338046073913574e-05
 11
-0.028072357177734375
 21
0.015275795944035053
 31
5.8338046073913574e-05
  0
LINE
  8
0
 10
-0.028072357177734375
 20
0.015275795944035053
 30
5.8338046073913574e-05
 11
-0.030382605269551277
 21
0.010953627526760101
 31
5.8338046073913574e-05
  0
LINE
  8
0
 10
-0.030382605269551277
 20
0.010953627526760101
 30
5.8338046073913574e-05
 11
-0.03180524706840515
 21
0.00626380043104291
 31
5.8338046073913574e-05
  0
LINE
  8
0
 10
-0.03180524706840515
 20
0.00626380043104291
 30
5.8338046073913574e-05
 11
-0.03228561580181122
 21
0.0013865437358617783
 31
5.8338046073913574e-05
  0
LINE
  8
0
 10
-0.03228561580181122
 20
0.0013865437358617783
 30
5.8338046073913574e-05
 11
-0.03180524706840515
 21
-0.003490712959319353
 31
5.8338046073913574e-05
  0
LINE
  8
0
 10
-0.03180524706840515
 20
-0.003490712959319353
 30
5.8338046073913574e-05
 11
-0.030382605269551277
 21
-0.008180540055036545
 31
5.8338046073913574e-05
  0
LINE
  8
0
 10
-0.030382605269551277
 20
-0.008180540055036545
 30
5.8338046073913574e-05
 11
-0.028072357177734375
 21
-0.012502712197601795
 31
5.8338046073913574e-05
  0
LINE
  8
0
 10
-0.028072357177734375
 20
-0.012502712197601795
 30
5.8338046073913574e-05
 11
-0.02496328577399254
 21
-0.016291126608848572
 31
5.8338046073913574e-05
  0
LINE
  8
0
 10
-0.02496328577399254
 20
-0.016291126608848572
 30
5.8338046073913574e-05
 11
-0.021174870431423187
 21
-0.01940019801259041
 31
5.8338046073913574e-05
  0
LINE
  8
0
 10
-0.021174870431423187
 20
-0.01940019801259041
 30
5.8338046073913574e-05
 11
-0.01685269922018051
 21
-0.02171044796705246
 31
5.8338046073913574e-05
  0
LINE
  8
0
 10
-0.01685269922018051
 20
-0.02171044796705246
 30
5.8338046073913574e-05
 11
-0.012162869796156883
 21
-0.023133089765906334
 31
5.8338046073913574e-05
  0
LINE
  8
0
 10
-0.012162869796156883
 20
-0.023133089765906334
 30
5.8338046073913574e-05
 11
-0.007285609375685453
 21
-0.02361345663666725
 31
5.8338046073913574e-05
  0
LINE
  8
0
 10
-0.007285609375685453
 20
-0.02361345663666725
 30
5.8338046073913574e-05
 11
-0.002408349420875311
 21
-0.023133087903261185
 31
5.8338046073913574e-05
  0
LINE
  8
0
 10
-0.002408349420875311
 20
-0.023133087903261185
 30
5.8338046073913574e-05
 11
0.0022814786061644554
 21
-0.021710440516471863
 31
5.8338046073913574e-05
  0
LINE
  8
0
 10
0.0022814786061644554
 20
-0.021710440516471863
 30
5.8338046073913574e-05
 11
0.006603650748729706
 21
-0.019400188699364662
 31
5.8338046073913574e-05
  0
LINE
  8
0
 10
0.006603650748729706
 20
-0.019400188699364662
 30
5.8338046073913574e-05
 11
0.010392062366008759
 21
-0.016291117295622826
 31
5.8338046073913574e-05
  0
LINE
  8
0
 10
0.010392062366008759
 20
-0.016291117295622826
 30
5.8338046073913574e-05
 11
0.013501131907105446
 21
-0.012502698227763176
 31
5.8338046073913574e-05
  0
LINE
  8
0
 10
0.013501131907105446
 20
-0.012502698227763176
 30
5.8338046073913574e-05
 11
0.0158113781362772
 21
-0.008180525153875351
 31
5.8338046073913574e-05
  0
LINE
  8
0
 10
0.0158113781362772
 20
-0.008180525153875351
 30
5.8338046073913574e-05
 11
0.017234018072485924
 21
-0.003490694332867861
 31
5.8338046073913574e-05
  0
LINE
  8
0
 10
0.017234018072485924
 20
-0.003490694332867861
 30
5.8338046073913574e-05
 11
0.017714381217956543
 21
0.0013865659711882472
 31
5.8338046073913574e-05
  0
LINE
  8
0
 10
0.017714381217956543
 20
0.0013865659711882472
 30
5.8338046073913574e-05
 11
0.017234008759260178
 21
0.006263825111091137
 31
5.8338046073913574e-05
  0
LINE
  8
0
 10
0.017234008759260178
 20
0.006263825111091137
 30
5.8338046073913574e-05
 11
0.015811359509825706
 21
0.010953652672469616
 31
5.8338046073913574e-05
  0
LINE
  8
0
 10
0.015811359509825706
 20
0.010953652672469616
 30
5.8338046073913574e-05
 11
0.013501103967428207
 21
0.015275822021067142
 31
5.8338046073913574e-05
  0
LINE
  8
0
 10
0.013501103967428207
 20
0.015275822021067142
 30
5.8338046073913574e-05
 11
0.010392028838396072
 21
0.01906423270702362
 31
5.8338046073913574e-05
  0
LINE
  8
0
 10
0.010392028838396072
 20
0.01906423270702362
 30
5.8338046073913574e-05
 11
0.006603610701858997
 21
0.02217330038547516
 31
5.8338046073913574e-05
  0
LINE
  8
0
 10
0.006603610701858997
 20
0.02217330038547516
 30
5.8338046073913574e-05
 11
0.0022814348340034485
 21
0.024483542889356613
 31
5.8338046073913574e-05
  0
LINE
  8
0
 10
0.0022814348340034485
 20
0.024483542889356613
 30
5.8338046073913574e-05
 11
-0.0024083969183266163
 21
0.02590618096292019
 31
5.8338046073913574e-05
  0
LINE
  8
0
 10
-0.007285617291927338
 20
0.02638654038310051
 30
5.8338046073913574e-05
 11
-0.0024083969183266163
 21
0.02590618096292019
 31
5.8338046073913574e-05
  0
LINE
  8
0
 10
-0.007285617291927338
 20
0.021386541426181793
 30
5.8338046073913574e-05
 11
-0.011187423951923847
 21
0.02100224792957306
 31
5.8338046073913574e-05
  0
LINE
  8
0
 10
-0.011187423951923847
 20
0.02100224792957306
 30
5.8338046073913574e-05
 11
-0.01493928674608469
 21
0.01986413262784481
 31
5.8338046073913574e-05
  0
LINE
  8
0
 10
-0.01493928674608469
 20
0.01986413262784481
 30
5.8338046073913574e-05
 11
-0.018397022038698196
 21
0.01801593415439129
 31
5.8338046073913574e-05
  0
LINE
  8
0
 10
-0.018397022038698196
 20
0.01801593415439129
 30
5.8338046073913574e-05
 11
-0.021427752450108528
 21
0.01552867703139782
 31
5.8338046073913574e-05
  0
LINE
  8
0
 10
-0.021427752450108528
 20
0.01552867703139782
 30
5.8338046073913574e-05
 11
-0.023915011435747147
 21
0.012497945688664913
 31
5.8338046073913574e-05
  0
LINE
  8
0
 10
-0.023915011435747147
 20
0.012497945688664913
 30
5.8338046073913574e-05
 11
-0.02576320804655552
 21
0.009040210396051407
 31
5.8338046073913574e-05
  0
LINE
  8
0
 10
-0.02576320804655552
 20
0.009040210396051407
 30
5.8338046073913574e-05
 11
-0.026901323348283768
 21
0.005288348998874426
 31
5.8338046073913574e-05
  0
LINE
  8
0
 10
-0.026901323348283768
 20
0.005288348998874426
 30
5.8338046073913574e-05
 11
-0.027285616844892502
 21
0.0013865433866158128
 31
5.8338046073913574e-05
  0
LINE
  8
0
 10
-0.027285616844892502
 20
0.0013865433866158128
 30
5.8338046073913574e-05
 11
-0.026901323348283768
 21
-0.0025152619928121567
 31
5.8338046073913574e-05
  0
LINE
  8
0
 10
-0.026901323348283768
 20
-0.0025152619928121567
 30
5.8338046073913574e-05
 11
-0.02576320990920067
 21
-0.006267123855650425
 31
5.8338046073913574e-05
  0
LINE
  8
0
 10
-0.02576320990920067
 20
-0.006267123855650425
 30
5.8338046073913574e-05
 11
-0.023915011435747147
 21
-0.009724861942231655
 31
5.8338046073913574e-05
  0
LINE
  8
0
 10
-0.023915011435747147
 20
-0.009724861942231655
 30
5.8338046073913574e-05
 11
-0.021427752450108528
 21
-0.012755593284964561
 31
5.8338046073913574e-05
  0
LINE
  8
0
 10
-0.021427752450108528
 20
-0.012755593284964561
 30
5.8338046073913574e-05
 11
-0.018397022038698196
 21
-0.01524285227060318
 31
5.8338046073913574e-05
  0
LINE
  8
0
 10
-0.018397022038698196
 20
-0.01524285227060318
 30
5.8338046073913574e-05
 11
-0.014939283020794392
 21
-0.0170910507440567
 31
5.8338046073913574e-05
  0
LINE
  8
0
 10
-0.014939283020794392
 20
-0.0170910507440567
 30
5.8338046073913574e-05
 11
-0.011187419295310974
 21
-0.0182291641831398
 31
5.8338046073913574e-05
  0
LINE
  8
0
 10
-0.011187419295310974
 20
-0.0182291641831398
 30
5.8338046073913574e-05
 11
-0.007285610772669315
 21
-0.018613457679748535
 31
5.8338046073913574e-05
  0
LINE
  8
0
 10
-0.007285610772669315
 20
-0.018613457679748535
 30
5.8338046073913574e-05
 11
-0.003383802715688944
 21
-0.018229162320494652
 31
5.8338046073913574e-05
  0
LINE
  8
0
 10
-0.003383802715688944
 20
-0.018229162320494652
 30
5.8338046073913574e-05
 11
0.00036806007847189903
 21
-0.017091045156121254
 31
5.8338046073913574e-05
  0
LINE
  8
0
 10
0.00036806007847189903
 20
-0.017091045156121254
 30
5.8338046073913574e-05
 11
0.003825797699391842
 21
-0.015242844820022583
 31
5.8338046073913574e-05
  0
LINE
  8
0
 10
0.003825797699391842
 20
-0.015242844820022583
 30
5.8338046073913574e-05
 11
0.006856527179479599
 21
-0.012755585834383965
 31
5.8338046073913574e-05
  0
LINE
  8
0
 10
0.006856527179479599
 20
-0.012755585834383965
 30
5.8338046073913574e-05
 11
0.009343784302473068
 21
-0.00972485076636076
 31
5.8338046073913574e-05
  0
LINE
  8
0
 10
0.009343784302473068
 20
-0.00972485076636076
 30
5.8338046073913574e-05
 11
0.011191979050636292
 21
-0.006267111748456955
 31
5.8338046073913574e-05
  0
LINE
  8
0
 10
0.011191979050636292
 20
-0.006267111748456955
 30
5.8338046073913574e-05
 11
0.012330092489719391
 21
-0.002515247091650963
 31
5.8338046073913574e-05
  0
LINE
  8
0
 10
0.012330092489719391
 20
-0.002515247091650963
 30
5.8338046073913574e-05
 11
0.012714382261037827
 21
0.0013865611981600523
 31
5.8338046073913574e-05
  0
LINE
  8
0
 10
0.012714382261037827
 20
0.0013865611981600523
 30
5.8338046073913574e-05
 11
0.012330085039138794
 21
0.00528836902230978
 31
5.8338046073913574e-05
  0
LINE
  8
0
 10
0.012330085039138794
 20
0.00528836902230978
 30
5.8338046073913574e-05
 11
0.011191964149475098
 21
0.009040230885148048
 31
5.8338046073913574e-05
  0
LINE
  8
0
 10
0.011191964149475098
 20
0.009040230885148048
 30
5.8338046073913574e-05
 11
0.009343761950731277
 21
0.01249796710908413
 31
5.8338046073913574e-05
  0
LINE
  8
0
 10
0.009343761950731277
 20
0.01249796710908413
 30
5.8338046073913574e-05
 11
0.006856500171124935
 21
0.015528695657849312
 31
5.8338046073913574e-05
  0
LINE
  8
0
 10
0.006856500171124935
 20
0.015528695657849312
 30
5.8338046073913574e-05
 11
0.0038257651031017303
 21
0.018015949055552483
 31
5.8338046073913574e-05
  0
LINE
  8
0
 10
0.0038257651031017303
 20
0.018015949055552483
 30
5.8338046073913574e-05
 11
0.00036802468821406364
 21
0.019864143803715706
 31
5.8338046073913574e-05
  0
LINE
  8
0
 10
0.00036802468821406364
 20
0.019864143803715706
 30
5.8338046073913574e-05
 11
-0.003383840899914503
 21
0.021002253517508507
 31
5.8338046073913574e-05
  0
LINE
  8
0
 10
-0.007285617291927338
 20
0.021386541426181793
 30
5.8338046073913574e-05
 11
-0.003383840899914503
 21
0.021002253517508507
 31
5.8338046073913574e-05
  0
LINE
  8
0
 10
-0.007285617291927338
 20
0.016386542469263077
 30
5.8338046073913574e-05
 11
-0.010211972519755363
 21
0.016098320484161377
 31
5.8338046073913574e-05
  0
LINE
  8
0
 10
-0.010211972519755363
 20
0.016098320484161377
 30
5.8338046073913574e-05
 11
-0.013025868684053421
 21
0.015244734473526478
 31
5.8338046073913574e-05
  0
LINE
  8
0
 10
-0.013025868684053421
 20
0.015244734473526478
 30
5.8338046073913574e-05
 11
-0.015619170852005482
 21
0.013858585618436337
 31
5.8338046073913574e-05
  0
LINE
  8
0
 10
-0.015619170852005482
 20
0.013858585618436337
 30
5.8338046073913574e-05
 11
-0.017892219126224518
 21
0.011993142776191235
 31
5.8338046073913574e-05
  0
LINE
  8
0
 10
-0.017892219126224518
 20
0.011993142776191235
 30
5.8338046073913574e-05
 11
-0.01975766196846962
 21
0.009720094501972198
 31
5.8338046073913574e-05
  0
LINE
  8
0
 10
-0.01975766196846962
 20
0.009720094501972198
 30
5.8338046073913574e-05
 11
-0.021143808960914612
 21
0.007126793265342712
 31
5.8338046073913574e-05
  0
LINE
  8
0
 10
-0.021143808960914612
 20
0.007126793265342712
 30
5.8338046073913574e-05
 11
-0.021997395902872086
 21
0.004312897101044655
 31
5.8338046073913574e-05
  0
LINE
  8
0
 10
-0.021997395902872086
 20
0.004312897101044655
 30
5.8338046073913574e-05
 11
-0.022285617887973785
 21
0.0013865430373698473
 31
5.8338046073913574e-05
  0
LINE
  8
0
 10
-0.022285617887973785
 20
0.0013865430373698473
 30
5.8338046073913574e-05
 11
-0.021997395902872086
 21
-0.0015398110263049603
 31
5.8338046073913574e-05
  0
LINE
  8
0
 10
-0.021997395902872086
 20
-0.0015398110263049603
 30
5.8338046073913574e-05
 11
-0.02114381082355976
 21
-0.004353707190603018
 31
5.8338046073913574e-05
  0
LINE
  8
0
 10
-0.02114381082355976
 20
-0.004353707190603018
 30
5.8338046073913574e-05
 11
-0.01975766196846962
 21
-0.00694701075553894
 31
5.8338046073913574e-05
  0
LINE
  8
0
 10
-0.01975766196846962
 20
-0.00694701075553894
 30
5.8338046073913574e-05
 11
-0.017892219126224518
 21
-0.009220059029757977
 31
5.8338046073913574e-05
  0
LINE
  8
0
 10
-0.017892219126224518
 20
-0.009220059029757977
 30
5.8338046073913574e-05
 11
-0.015619169920682907
 21
-0.011085502803325653
 31
5.8338046073913574e-05
  0
LINE
  8
0
 10
-0.015619169920682907
 20
-0.011085502803325653
 30
5.8338046073913574e-05
 11
-0.013025866821408272
 21
-0.012471652589738369
 31
5.8338046073913574e-05
  0
LINE
  8
0
 10
-0.013025866821408272
 20
-0.012471652589738369
 30
5.8338046073913574e-05
 11
-0.010211968794465065
 21
-0.013325237669050694
 31
5.8338046073913574e-05
  0
LINE
  8
0
 10
-0.010211968794465065
 20
-0.013325237669050694
 30
5.8338046073913574e-05
 11
-0.007285612635314465
 21
-0.013613457791507244
 31
5.8338046073913574e-05
  0
LINE
  8
0
 10
-0.007285612635314465
 20
-0.013613457791507244
 30
5.8338046073913574e-05
 11
-0.004359256476163864
 21
-0.013325235806405544
 31
5.8338046073913574e-05
  0
LINE
  8
0
 10
-0.004359256476163864
 20
-0.013325235806405544
 30
5.8338046073913574e-05
 11
-0.001545359380543232
 21
-0.012471647933125496
 31
5.8338046073913574e-05
  0
LINE
  8
0
 10
-0.001545359380543232
 20
-0.012471647933125496
 30
5.8338046073913574e-05
 11
0.0010479437187314034
 21
-0.011085497215390205
 31
5.8338046073913574e-05
  0
LINE
  8
0
 10
0.0010479437187314034
 20
-0.011085497215390205
 30
5.8338046073913574e-05
 11
0.003320991061627865
 21
-0.009220053441822529
 31
5.8338046073913574e-05
  0
LINE
  8
0
 10
0.003320991061627865
 20
-0.009220053441822529
 30
5.8338046073913574e-05
 11
0.005186432972550392
 21
-0.006947002373635769
 31
5.8338046073913574e-05
  0
LINE
  8
0
 10
0.005186432972550392
 20
-0.006947002373635769
 30
5.8338046073913574e-05
 11
0.006572579964995384
 21
-0.004353698343038559
 31
5.8338046073913574e-05
  0
LINE
  8
0
 10
0.006572579964995384
 20
-0.004353698343038559
 30
5.8338046073913574e-05
 11
0.007426164112985134
 21
-0.0015397998504340649
 31
5.8338046073913574e-05
  0
LINE
  8
0
 10
0.007426164112985134
 20
-0.0015397998504340649
 30
5.8338046073913574e-05
 11
0.0077143823727965355
 21
0.0013865563087165356
 31
5.8338046073913574e-05
  0
LINE
  8
0
 10
0.0077143823727965355
 20
0.0013865563087165356
 30
5.8338046073913574e-05
 11
0.007426158525049686
 21
0.004312912002205849
 31
5.8338046073913574e-05
  0
LINE
  8
0
 10
0.007426158525049686
 20
0.004312912002205849
 30
5.8338046073913574e-05
 11
0.006572568789124489
 21
0.0071268086321651936
 31
5.8338046073913574e-05
  0
LINE
  8
0
 10
0.006572568789124489
 20
0.0071268086321651936
 30
5.8338046073913574e-05
 11
0.005186416208744049
 21
0.009720110334455967
 31
5.8338046073913574e-05
  0
LINE
  8
0
 10
0.005186416208744049
 20
0.009720110334455967
 30
5.8338046073913574e-05
 11
0.0033209705725312233
 21
0.011993156746029854
 31
5.8338046073913574e-05
  0
LINE
  8
0
 10
0.0033209705725312233
 20
0.011993156746029854
 30
5.8338046073913574e-05
 11
0.0010479195043444633
 21
0.013858596794307232
 31
5.8338046073913574e-05
  0
LINE
  8
0
 10
0.0010479195043444633
 20
0.013858596794307232
 30
5.8338046073913574e-05
 11
-0.0015453859232366085
 21
0.01524474285542965
 31
5.8338046073913574e-05
  0
LINE
  8
0
 10
-0.0015453859232366085
 20
0.01524474285542965
 30
5.8338046073913574e-05
 11
-0.004359285347163677
 21
0.016098324209451675
 31
5.8338046073913574e-05
  0
LINE
  8
0
 10
-0.007285617291927338
 20
0.016386542469263077
 30
5.8338046073913574e-05
 11
-0.004359285347163677
 21
0.016098324209451675
 31
5.8338046073913574e-05
  0
LINE
  8
0
 10
-0.007285617291927338
 20
0.01388654112815857
 30
5.8338046073913574e-05
 11
-0.009724246338009834
 21
0.013646356761455536
 31
5.8338046073913574e-05
  0
LINE
  8
0
 10
-0.009724246338009834
 20
0.013646356761455536
 30
5.8338046073913574e-05
 11
-0.012069160118699074
 21
0.012935035862028599
 31
5.8338046073913574e-05
  0
LINE
  8
0
 10
-0.012069160118699074
 20
0.012935035862028599
 30
5.8338046073913574e-05
 11
-0.014230245724320412
 21
0.011779911816120148
 31
5.8338046073913574e-05
  0
LINE
  8
0
 10
-0.014230245724320412
 20
0.011779911816120148
 30
5.8338046073913574e-05
 11
-0.016124451532959938
 21
0.01022537611424923
 31
5.8338046073913574e-05
  0
LINE
  8
0
 10
-0.016124451532959938
 20
0.01022537611424923
 30
5.8338046073913574e-05
 11
-0.017678987234830856
 21
0.008331168442964554
 31
5.8338046073913574e-05
  0
LINE
  8
0
 10
-0.017678987234830856
 20
0.008331168442964554
 30
5.8338046073913574e-05
 11
-0.018834110349416733
 21
0.006170084699988365
 31
5.8338046073913574e-05
  0
LINE
  8
0
 10
-0.018834110349416733
 20
0.006170084699988365
 30
5.8338046073913574e-05
 11
-0.019545432180166245
 21
0.0038251711521297693
 31
5.8338046073913574e-05
  0
LINE
  8
0
 10
-0.019545432180166245
 20
0.0038251711521297693
 30
5.8338046073913574e-05
 11
-0.019785616546869278
 21
0.0013865428045392036
 31
5.8338046073913574e-05
  0
LINE
  8
0
 10
-0.019785616546869278
 20
0.0013865428045392036
 30
5.8338046073913574e-05
 11
-0.019545432180166245
 21
-0.001052085543051362
 31
5.8338046073913574e-05
  0
LINE
  8
0
 10
-0.019545432180166245
 20
-0.001052085543051362
 30
5.8338046073913574e-05
 11
-0.018834110349416733
 21
-0.003396999090909958
 31
5.8338046073913574e-05
  0
LINE
  8
0
 10
-0.018834110349416733
 20
-0.003396999090909958
 30
5.8338046073913574e-05
 11
-0.017678987234830856
 21
-0.005558085162192583
 31
5.8338046073913574e-05
  0
LINE
  8
0
 10
-0.017678987234830856
 20
-0.005558085162192583
 30
5.8338046073913574e-05
 11
-0.016124451532959938
 21
-0.007452292367815971
 31
5.8338046073913574e-05
  0
LINE
  8
0
 10
-0.016124451532959938
 20
-0.007452292367815971
 30
5.8338046073913574e-05
 11
-0.014230243861675262
 21
-0.00900682806968689
 31
5.8338046073913574e-05
  0
LINE
  8
0
 10
-0.014230243861675262
 20
-0.00900682806968689
 30
5.8338046073913574e-05
 11
-0.012069158256053925
 21
-0.010161953046917915
 31
5.8338046073913574e-05
  0
LINE
  8
0
 10
-0.012069158256053925
 20
-0.010161953046917915
 30
5.8338046073913574e-05
 11
-0.00972424354404211
 21
-0.010873273946344852
 31
5.8338046073913574e-05
  0
LINE
  8
0
 10
-0.00972424354404211
 20
-0.010873273946344852
 30
5.8338046073913574e-05
 11
-0.007285613100975752
 21
-0.011113457381725311
 31
5.8338046073913574e-05
  0
LINE
  8
0
 10
-0.007285613100975752
 20
-0.011113457381725311
 30
5.8338046073913574e-05
 11
-0.004846983589231968
 21
-0.010873273015022278
 31
5.8338046073913574e-05
  0
LINE
  8
0
 10
-0.004846983589231968
 20
-0.010873273015022278
 30
5.8338046073913574e-05
 11
-0.002502069342881441
 21
-0.010161949321627617
 31
5.8338046073913574e-05
  0
LINE
  8
0
 10
-0.002502069342881441
 20
-0.010161949321627617
 30
5.8338046073913574e-05
 11
-0.0003409832715988159
 21
-0.009006823413074017
 31
5.8338046073913574e-05
  0
LINE
  8
0
 10
-0.0003409832715988159
 20
-0.009006823413074017
 30
5.8338046073913574e-05
 11
0.0015532225370407104
 21
-0.007452287711203098
 31
5.8338046073913574e-05
  0
LINE
  8
0
 10
0.0015532225370407104
 20
-0.007452287711203098
 30
5.8338046073913574e-05
 11
0.003107757307589054
 21
-0.0055580781772732735
 31
5.8338046073913574e-05
  0
LINE
  8
0
 10
0.003107757307589054
 20
-0.0055580781772732735
 30
5.8338046073913574e-05
 11
0.004262880422174931
 21
-0.003396991640329361
 31
5.8338046073913574e-05
  0
LINE
  8
0
 10
0.004262880422174931
 20
-0.003396991640329361
 30
5.8338046073913574e-05
 11
0.004974200390279293
 21
-0.0010520762298256159
 31
5.8338046073913574e-05
  0
LINE
  8
0
 10
0.004974200390279293
 20
-0.0010520762298256159
 30
5.8338046073913574e-05
 11
0.005214381963014603
 21
0.001386553980410099
 31
5.8338046073913574e-05
  0
LINE
  8
0
 10
0.005214381963014603
 20
0.001386553980410099
 30
5.8338046073913574e-05
 11
0.00497419573366642
 21
0.003825183492153883
 31
5.8338046073913574e-05
  0
LINE
  8
0
 10
0.00497419573366642
 20
0.003825183492153883
 30
5.8338046073913574e-05
 11
0.004262871108949184
 21
0.0061700972728431225
 31
5.8338046073913574e-05
  0
LINE
  8
0
 10
0.004262871108949184
 20
0.0061700972728431225
 30
5.8338046073913574e-05
 11
0.003107743337750435
 21
0.008331181481480598
 31
5.8338046073913574e-05
  0
LINE
  8
0
 10
0.003107743337750435
 20
0.008331181481480598
 30
5.8338046073913574e-05
 11
0.0015532057732343674
 21
0.010225387290120125
 31
5.8338046073913574e-05
  0
LINE
  8
0
 10
0.0015532057732343674
 20
0.010225387290120125
 30
5.8338046073913574e-05
 11
-0.00034100329503417015
 21
0.011779921129345894
 31
5.8338046073913574e-05
  0
LINE
  8
0
 10
-0.00034100329503417015
 20
0.011779921129345894
 30
5.8338046073913574e-05
 11
-0.0025020912289619446
 21
0.012935042381286621
 31
5.8338046073913574e-05
  0
LINE
  8
0
 10
-0.0025020912289619446
 20
0.012935042381286621
 30
5.8338046073913574e-05
 11
-0.004847006872296333
 21
0.013646361418068409
 31
5.8338046073913574e-05
  0
LINE
  8
0
 10
-0.007285617291927338
 20
0.01388654112815857
 30
5.8338046073913574e-05
 11
-0.004847006872296333
 21
0.013646361418068409
 31
5.8338046073913574e-05
  0
LINE
  8
0
 10
-0.032233450561761856
 20
-0.03143160045146942
 30
0.0
 11
-0.02649475634098053
 21
-0.03449973464012146
 31
0.0
  0
LINE
  8
0
 10
-0.02649475634098053
 20
-0.03449973464012146
 30
0.0
 11
-0.020326104015111923
 21
-0.036571890115737915
 31
0.0
  0
LINE
  8
0
 10
-0.013898925855755806
 20
-0.03759048879146576
 30
0.0
 11
-0.020326104015111923
 21
-0.036571890115737915
 31
0.0
  0
LINE
  8
0
 10
-0.050058700144290924
 20
0.0013371855020523071
 30
0.0
 11
-0.049396637827157974
 21
0.00924023985862732
 31
0.0
  0
LINE
  8
0
 10
0.02435271441936493
 20
0.040445178747177124
 30
0.0
 11
0.017468078061938286
 21
0.04438196122646332
 31
0.0
  0
LINE
  8
0
 10
0.017468078061938286
 20
0.04438196122646332
 30
0.0
 11
0.010024217888712883
 21
0.04711788892745972
 31
0.0
  0
LINE
  8
0
 10
0.010024217888712883
 20
0.04711788892745972
 30
0.0
 11
0.002228817902505398
 21
0.0485767126083374
 31
0.0
  0
LINE
  8
0
 10
0.002228817902505398
 20
0.0485767126083374
 30
0.0
 11
-0.005700656212866306
 21
0.0487176775932312
 31
0.0
  0
LINE
  8
0
 10
-0.005700656212866306
 20
0.0487176775932312
 30
0.0
 11
-0.013542983680963516
 21
0.04753686487674713
 31
0.0
  0
LINE
  8
0
 10
-0.013542983680963516
 20
0.04753686487674713
 30
0.0
 11
-0.02107938379049301
 21
0.045067235827445984
 31
0.0
  0
LINE
  8
0
 10
-0.02107938379049301
 20
0.045067235827445984
 30
0.0
 11
-0.028099600225687027
 21
0.04137766361236572
 31
0.0
  0
LINE
  8
0
 10
-0.028099600225687027
 20
0.04137766361236572
 30
0.0
 11
-0.03440778702497482
 21
0.03657107055187225
 31
0.0
  0
LINE
  8
0
 10
-0.03440778702497482
 20
0.03657107055187225
 30
0.0
 11
-0.03982795774936676
 21
0.0307815819978714
 31
0.0
  0
LINE
  8
0
 10
-0.03982795774936676
 20
0.0307815819978714
 30
0.0
 11
-0.04420890659093857
 21
0.02417069673538208
 31
0.0
  0
LINE
  8
0
 10
-0.04420890659093857
 20
0.02417069673538208
 30
0.0
 11
-0.04742840677499771
 21
0.01692284643650055
 31
0.0
  0
LINE
  8
0
 10
-0.04742840677499771
 20
0.01692284643650055
 30
0.0
 11
-0.049396637827157974
 21
0.00924023985862732
 31
0.0
  0
LINE
  8
0
 10
-0.03730680048465729
 20
-0.03424270451068878
 30
0.0
 11
-0.036739498376846313
 21
-0.03390467166900635
 31
0.0
  0
LINE
  8
0
 10
-0.03856832906603813
 20
-0.03461827337741852
 30
0.0
 11
-0.037922002375125885
 21
-0.03448276221752167
 31
0.0
  0
LINE
  8
0
 10
-0.03922814875841141
 20
-0.03464557230472565
 30
0.0
 11
-0.03856832906603813
 21
-0.03461827337741852
 31
0.0
  0
LINE
  8
0
 10
-0.039883457124233246
 20
-0.034563884139060974
 30
0.0
 11
-0.03922814875841141
 21
-0.03464557230472565
 31
0.0
  0
LINE
  8
0
 10
-0.040516383945941925
 20
-0.03437545895576477
 30
0.0
 11
-0.039883457124233246
 21
-0.034563884139060974
 31
0.0
  0
LINE
  8
0
 10
-0.041109662503004074
 20
-0.03408542275428772
 30
0.0
 11
-0.040516383945941925
 21
-0.03437545895576477
 31
0.0
  0
LINE
  8
0
 10
-0.04164711385965347
 20
-0.033701688051223755
 30
0.0
 11
-0.041109662503004074
 21
-0.03408542275428772
 31
0.0
  0
LINE
  8
0
 10
-0.042114075273275375
 20
-0.03323473036289215
 30
0.0
 11
-0.04164711385965347
 21
-0.033701688051223755
 31
0.0
  0
LINE
  8
0
 10
-0.04249780625104904
 20
-0.032697275280952454
 30
0.0
 11
-0.042114075273275375
 21
-0.03323473036289215
 31
0.0
  0
LINE
  8
0
 10
-0.04278784245252609
 20
-0.0321040004491806
 30
0.0
 11
-0.04249780625104904
 21
-0.032697275280952454
 31
0.0
  0
LINE
  8
0
 10
-0.04289514943957329
 20
-0.029509618878364563
 30
0.0
 11
-0.043030668050050735
 21
-0.03015594184398651
 31
0.0
  0
LINE
  8
0
 10
-0.0426550954580307
 20
-0.02889440953731537
 30
0.0
 11
-0.04289514943957329
 21
-0.029509618878364563
 31
0.0
  0
LINE
  8
0
 10
-0.04189025238156319
 20
-0.027823179960250854
 30
0.0
 11
-0.04231705516576767
 21
-0.028327107429504395
 31
0.0
  0
LINE
  8
0
 10
-0.04297627508640289
 20
-0.031471073627471924
 30
0.0
 11
-0.04278784245252609
 21
-0.0321040004491806
 31
0.0
  0
LINE
  8
0
 10
-0.03623557090759277
 20
-0.03347785770893097
 30
0.0
 11
-0.036739498376846313
 21
-0.03390467166900635
 31
0.0
  0
LINE
  8
0
 10
-0.04231705516576767
 20
-0.028327107429504395
 30
0.0
 11
-0.0426550954580307
 21
-0.02889440953731537
 31
0.0
  0
LINE
  8
0
 10
-0.043030668050050735
 20
-0.03015594184398651
 30
0.0
 11
-0.04305795952677727
 21
-0.030815765261650085
 31
0.0
  0
LINE
  8
0
 10
-0.04305795952677727
 20
-0.030815765261650085
 30
0.0
 11
-0.04297627508640289
 21
-0.031471073627471924
 31
0.0
  0
LINE
  8
0
 10
-0.037922002375125885
 20
-0.03448276221752167
 30
0.0
 11
-0.03730680048465729
 21
-0.03424270451068878
 31
0.0
  0
LINE
  8
0
 10
0.03276625648140907
 20
0.03552404046058655
 30
0.0
 11
0.032576095312833786
 21
0.035298749804496765
 31
0.0
  0
LINE
  8
0
 10
0.03270341455936432
 20
0.03311632573604584
 30
0.0
 11
0.03252526745200157
 21
0.033351242542266846
 31
0.0
  0
LINE
  8
0
 10
0.03252526745200157
 20
0.033351242542266846
 30
0.0
 11
0.03238909691572189
 21
0.033612728118896484
 31
0.0
  0
LINE
  8
0
 10
0.03238909691572189
 20
0.033612728118896484
 30
0.0
 11
0.032298773527145386
 21
0.03389337658882141
 31
0.0
  0
LINE
  8
0
 10
0.032298773527145386
 20
0.03389337658882141
 30
0.0
 11
0.03225686028599739
 21
0.034185200929641724
 31
0.0
  0
LINE
  8
0
 10
0.03225686028599739
 20
0.034185200929641724
 30
0.0
 11
0.032264553010463715
 21
0.034479930996894836
 31
0.0
  0
LINE
  8
0
 10
0.032264553010463715
 20
0.034479930996894836
 30
0.0
 11
0.03232163190841675
 21
0.03476916253566742
 31
0.0
  0
LINE
  8
0
 10
0.03232163190841675
 20
0.03476916253566742
 30
0.0
 11
0.03242646902799606
 21
0.03504471480846405
 31
0.0
  0
LINE
  8
0
 10
0.03242646902799606
 20
0.03504471480846405
 30
0.0
 11
0.032576095312833786
 21
0.035298749804496765
 31
0.0
  0
LINE
  8
0
 10
0.026087254285812378
 20
0.040301963686943054
 30
0.0
 11
0.026349633932113647
 21
0.0404539555311203
 31
0.0
  0
LINE
  8
0
 10
0.026581820100545883
 20
0.04064898192882538
 30
0.0
 11
0.026349633932113647
 21
0.0404539555311203
 31
0.0
  0
LINE
  8
0
 10
0.02435271441936493
 20
0.040445178747177124
 30
0.0
 11
0.02461642026901245
 21
0.040295496582984924
 31
0.0
  0
LINE
  8
0
 10
0.02461642026901245
 20
0.040295496582984924
 30
0.0
 11
0.024902012199163437
 21
0.040193602442741394
 31
0.0
  0
LINE
  8
0
 10
0.024902012199163437
 20
0.040193602442741394
 30
0.0
 11
0.02520091086626053
 21
0.04014255106449127
 31
0.0
  0
LINE
  8
0
 10
0.02520091086626053
 20
0.04014255106449127
 30
0.0
 11
0.025504130870103836
 21
0.040143877267837524
 31
0.0
  0
LINE
  8
0
 10
0.025504130870103836
 20
0.040143877267837524
 30
0.0
 11
0.02580256760120392
 21
0.040197551250457764
 31
0.0
  0
LINE
  8
0
 10
0.02580256760120392
 20
0.040197551250457764
 30
0.0
 11
0.026087254285812378
 21
0.040301963686943054
 31
0.0
  0
LINE
  8
0
 10
0.03473711758852005
 20
0.03749491274356842
 30
0.0
 11
0.03516392409801483
 21
0.03799884021282196
 31
0.0
  0
LINE
  8
0
 10
0.029082439839839935
 20
0.04314960539340973
 30
0.0
 11
0.029586367309093475
 21
0.043576404452323914
 31
0.0
  0
LINE
  8
0
 10
0.03015366941690445
 20
0.04391443729400635
 30
0.0
 11
0.029586367309093475
 21
0.043576404452323914
 31
0.0
  0
LINE
  8
0
 10
0.030768875032663345
 20
0.04415449500083923
 30
0.0
 11
0.03015366941690445
 21
0.04391443729400635
 31
0.0
  0
LINE
  8
0
 10
0.03141520172357559
 20
0.04429002106189728
 30
0.0
 11
0.030768875032663345
 21
0.04415449500083923
 31
0.0
  0
LINE
  8
0
 10
0.03207501769065857
 20
0.04431730508804321
 30
0.0
 11
0.03141520172357559
 21
0.04429002106189728
 31
0.0
  0
LINE
  8
0
 10
0.032730329781770706
 20
0.04423561692237854
 30
0.0
 11
0.03207501769065857
 21
0.04431730508804321
 31
0.0
  0
LINE
  8
0
 10
0.03336324915289879
 20
0.044047191739082336
 30
0.0
 11
0.032730329781770706
 21
0.04423561692237854
 31
0.0
  0
LINE
  8
0
 10
0.033956531435251236
 20
0.043757155537605286
 30
0.0
 11
0.03336324915289879
 21
0.044047191739082336
 31
0.0
  0
LINE
  8
0
 10
0.034493982791900635
 20
0.04337342083454132
 30
0.0
 11
0.033956531435251236
 21
0.043757155537605286
 31
0.0
  0
LINE
  8
0
 10
0.03496094048023224
 20
0.04290646314620972
 30
0.0
 11
0.034493982791900635
 21
0.04337342083454132
 31
0.0
  0
LINE
  8
0
 10
0.035344671458005905
 20
0.04236900806427002
 30
0.0
 11
0.03496094048023224
 21
0.04290646314620972
 31
0.0
  0
LINE
  8
0
 10
0.035634711384773254
 20
0.04177573323249817
 30
0.0
 11
0.035344671458005905
 21
0.04236900806427002
 31
0.0
  0
LINE
  8
0
 10
0.035823140293359756
 20
0.04114280641078949
 30
0.0
 11
0.035634711384773254
 21
0.04177573323249817
 31
0.0
  0
LINE
  8
0
 10
0.03590482473373413
 20
0.04048749804496765
 30
0.0
 11
0.035823140293359756
 21
0.04114280641078949
 31
0.0
  0
LINE
  8
0
 10
0.0358775369822979
 20
0.03982767462730408
 30
0.0
 11
0.03590482473373413
 21
0.04048749804496765
 31
0.0
  0
LINE
  8
0
 10
0.03574201464653015
 20
0.03918135166168213
 30
0.0
 11
0.0358775369822979
 21
0.03982767462730408
 31
0.0
  0
LINE
  8
0
 10
0.035501960664987564
 20
0.038566142320632935
 30
0.0
 11
0.03574201464653015
 21
0.03918135166168213
 31
0.0
  0
LINE
  8
0
 10
0.03516392409801483
 20
0.03799884021282196
 30
0.0
 11
0.035501960664987564
 21
0.038566142320632935
 31
0.0
  0
LINE
  8
0
 10
0.04490479454398155
 20
0.0013387799263000488
 30
0.0
 11
0.044395189732313156
 21
0.008276671171188354
 31
0.0
  0
LINE
  8
0
 10
0.03270341455936432
 20
0.03311632573604584
 30
0.0
 11
0.03696799650788307
 21
0.027620211243629456
 31
0.0
  0
LINE
  8
0
 10
0.04038373753428459
 20
0.021559953689575195
 30
0.0
 11
0.03696799650788307
 21
0.027620211243629456
 31
0.0
  0
LINE
  8
0
 10
0.04287730157375336
 20
0.015065640211105347
 30
0.0
 11
0.04038373753428459
 21
0.021559953689575195
 31
0.0
  0
LINE
  8
0
 10
0.044395189732313156
 20
0.008276671171188354
 30
0.0
 11
0.04287730157375336
 21
0.015065640211105347
 31
0.0
  0
LINE
  8
0
 10
0.04490479454398155
 20
0.0013387799263000488
 30
0.0
 11
0.044904813170433044
 21
-0.03964357450604439
 31
0.0
  0
LINE
  8
0
 10
-0.0129729388281703
 20
-0.03858739137649536
 30
0.0
 11
-0.012986736372113228
 21
-0.0384218692779541
 31
0.0
  0
LINE
  8
0
 10
-0.013898925855755806
 20
-0.03759048879146576
 30
0.0
 11
-0.013734879903495312
 21
-0.03761643171310425
 31
0.0
  0
LINE
  8
0
 10
-0.013734879903495312
 20
-0.03761643171310425
 30
0.0
 11
-0.013577395118772984
 21
-0.03766919672489166
 31
0.0
  0
LINE
  8
0
 10
-0.013577395118772984
 20
-0.03766919672489166
 30
0.0
 11
-0.013430818915367126
 21
-0.03774729371070862
 31
0.0
  0
LINE
  8
0
 10
-0.013430818915367126
 20
-0.03774729371070862
 30
0.0
 11
-0.01329919882118702
 21
-0.037848591804504395
 31
0.0
  0
LINE
  8
0
 10
-0.01329919882118702
 20
-0.037848591804504395
 30
0.0
 11
-0.013186166062951088
 21
-0.037970274686813354
 31
0.0
  0
LINE
  8
0
 10
-0.013186166062951088
 20
-0.037970274686813354
 30
0.0
 11
-0.013094842433929443
 21
-0.038109004497528076
 31
0.0
  0
LINE
  8
0
 10
-0.013094842433929443
 20
-0.038109004497528076
 30
0.0
 11
-0.013027748093008995
 21
-0.03826093673706055
 31
0.0
  0
LINE
  8
0
 10
-0.013027748093008995
 20
-0.03826093673706055
 30
0.0
 11
-0.012986736372113228
 21
-0.0384218692779541
 31
0.0
  0
LINE
  8
0
 10
-0.033937662839889526
 20
-0.03132154047489166
 30
0.0
 11
-0.034193843603134155
 21
-0.03147178888320923
 31
0.0
  0
LINE
  8
0
 10
-0.0344209149479866
 20
-0.031663209199905396
 30
0.0
 11
-0.034193843603134155
 21
-0.03147178888320923
 31
0.0
  0
LINE
  8
0
 10
-0.032233450561761856
 20
-0.03143160045146942
 30
0.0
 11
-0.03249557316303253
 21
-0.03129197657108307
 31
0.0
  0
LINE
  8
0
 10
-0.03249557316303253
 20
-0.03129197657108307
 30
0.0
 11
-0.032777536660432816
 21
-0.031198710203170776
 31
0.0
  0
LINE
  8
0
 10
-0.032777536660432816
 20
-0.031198710203170776
 30
0.0
 11
-0.033071212470531464
 21
-0.031154468655586243
 31
0.0
  0
LINE
  8
0
 10
-0.033071212470531464
 20
-0.031154468655586243
 30
0.0
 11
-0.03336814045906067
 21
-0.031160563230514526
 31
0.0
  0
LINE
  8
0
 10
-0.03336814045906067
 20
-0.031160563230514526
 30
0.0
 11
-0.033659759908914566
 21
-0.031216785311698914
 31
0.0
  0
LINE
  8
0
 10
-0.033659759908914566
 20
-0.031216785311698914
 30
0.0
 11
-0.033937662839889526
 21
-0.03132154047489166
 31
0.0
  0
LINE
  8
0
 10
-0.040639229118824005
 20
-0.02657216787338257
 30
0.0
 11
-0.040451355278491974
 21
-0.026350080966949463
 31
0.0
  0
LINE
  8
0
 10
-0.040552861988544464
 20
-0.02419111132621765
 30
0.0
 11
-0.04038156941533089
 21
-0.024426206946372986
 31
0.0
  0
LINE
  8
0
 10
-0.04038156941533089
 20
-0.024426206946372986
 30
0.0
 11
-0.040251608937978745
 21
-0.02468644082546234
 31
0.0
  0
LINE
  8
0
 10
-0.040251608937978745
 20
-0.02468644082546234
 30
0.0
 11
-0.04016656428575516
 21
-0.024964630603790283
 31
0.0
  0
LINE
  8
0
 10
-0.04016656428575516
 20
-0.024964630603790283
 30
0.0
 11
-0.04012879356741905
 21
-0.025253042578697205
 31
0.0
  0
LINE
  8
0
 10
-0.04012879356741905
 20
-0.025253042578697205
 30
0.0
 11
-0.0401393361389637
 21
-0.025543734431266785
 31
0.0
  0
LINE
  8
0
 10
-0.0401393361389637
 20
-0.025543734431266785
 30
0.0
 11
-0.04019790515303612
 21
-0.025828659534454346
 31
0.0
  0
LINE
  8
0
 10
-0.04019790515303612
 20
-0.025828659534454346
 30
0.0
 11
-0.040302880108356476
 21
-0.026099950075149536
 31
0.0
  0
LINE
  8
0
 10
-0.040302880108356476
 20
-0.026099950075149536
 30
0.0
 11
-0.040451355278491974
 21
-0.026350080966949463
 31
0.0
  0
LINE
  8
0
 10
-0.050058700144290924
 20
0.0013371855020523071
 30
0.0
 11
-0.04966246709227562
 21
-0.004209190607070923
 31
0.0
  0
LINE
  8
0
 10
-0.040552861988544464
 20
-0.02419111132621765
 30
0.0
 11
-0.04388069733977318
 21
-0.019736364483833313
 31
0.0
  0
LINE
  8
0
 10
-0.04654180631041527
 20
-0.014853954315185547
 30
0.0
 11
-0.04388069733977318
 21
-0.019736364483833313
 31
0.0
  0
LINE
  8
0
 10
-0.04848218709230423
 20
-0.009642988443374634
 30
0.0
 11
-0.04654180631041527
 21
-0.014853954315185547
 31
0.0
  0
LINE
  8
0
 10
-0.04966246709227562
 20
-0.004209190607070923
 30
0.0
 11
-0.04848218709230423
 21
-0.009642988443374634
 31
0.0
  0
LINE
  8
0
 10
0.044904813170433044
 20
-0.03964357450604439
 30
0.0
 11
-0.012972935102880001
 21
-0.03964358940720558
 31
0.0
  0
LINE
  8
0
 10
0.03276625648140907
 20
0.03552404046058655
 30
0.0
 11
0.03473711758852005
 21
0.03749491274356842
 31
0.0
  0
LINE
  8
0
 10
0.026581820100545883
 20
0.04064898192882538
 30
0.0
 11
0.029082439839839935
 21
0.04314960539340973
 31
0.0
  0
LINE
  8
0
 10
-0.04189025238156319
 20
-0.027823179960250854
 30
0.0
 11
-0.040639229118824005
 21
-0.02657216787338257
 31
0.0
  0
LINE
  8
0
 10
-0.03623557090759277
 20
-0.03347785770893097
 30
0.0
 11
-0.0344209149479866
 21
-0.031663209199905396
 31
0.0
  0
LINE
  8
0
 10
-0.0129729388281703
 20
-0.03858739137649536
 30
0.0
 11
-0.012972935102880001
 21
-0.03964358940720558
 31
0.0
  0
ENDSEC
  0
EOF
