# Blender v2.82 (sub 7) OBJ File: 'Ventilador digital.blend'
# www.blender.org
mtllib fan_tube_salidacople.mtl
o Cube_Cube.001
v -0.029644 0.041159 0.066714
v -0.004491 0.041159 0.066714
v -0.033733 0.059347 0.050939
v -0.000402 0.059347 0.050939
v -0.029644 0.017535 0.066714
v -0.004491 0.017535 0.066714
v -0.033733 -0.000653 0.050939
v -0.000402 -0.000653 0.050939
v -0.033733 0.059347 0.045939
v -0.000402 0.059347 0.045939
v -0.033733 -0.000653 0.045939
v -0.000402 -0.000653 0.045939
v -0.017067 0.040347 0.071939
v -0.019213 0.040136 0.071939
v -0.021277 0.039510 0.071939
v -0.023178 0.038493 0.071939
v -0.024845 0.037125 0.071939
v -0.026213 0.035458 0.071939
v -0.027230 0.033557 0.071939
v -0.027856 0.031493 0.071939
v -0.028067 0.029347 0.071939
v -0.027856 0.027201 0.071939
v -0.027230 0.025138 0.071939
v -0.026213 0.023236 0.071939
v -0.024845 0.021569 0.071939
v -0.023178 0.020201 0.071939
v -0.021277 0.019184 0.071939
v -0.019213 0.018558 0.071939
v -0.017067 0.018347 0.071939
v -0.014921 0.018558 0.071939
v -0.012858 0.019184 0.071939
v -0.010956 0.020201 0.071939
v -0.009289 0.021569 0.071939
v -0.007921 0.023236 0.071939
v -0.006904 0.025138 0.071939
v -0.006278 0.027201 0.071939
v -0.006067 0.029347 0.071939
v -0.006278 0.031493 0.071939
v -0.006904 0.033557 0.071939
v -0.007921 0.035458 0.071939
v -0.009289 0.037125 0.071939
v -0.010956 0.038493 0.071939
v -0.012858 0.039510 0.071939
v -0.014921 0.040136 0.071939
v -0.017067 0.040347 0.076939
v -0.019213 0.040136 0.076939
v -0.021277 0.039510 0.076939
v -0.023178 0.038493 0.076939
v -0.024845 0.037125 0.076939
v -0.026213 0.035458 0.076939
v -0.027230 0.033557 0.076939
v -0.027856 0.031493 0.076939
v -0.028067 0.029347 0.076939
v -0.027856 0.027201 0.076939
v -0.027230 0.025138 0.076939
v -0.026213 0.023236 0.076939
v -0.024845 0.021569 0.076939
v -0.023178 0.020201 0.076939
v -0.021277 0.019184 0.076939
v -0.019213 0.018558 0.076939
v -0.017067 0.018347 0.076939
v -0.014921 0.018558 0.076939
v -0.012858 0.019184 0.076939
v -0.010956 0.020201 0.076939
v -0.009289 0.021569 0.076939
v -0.007921 0.023236 0.076939
v -0.006904 0.025138 0.076939
v -0.006278 0.027201 0.076939
v -0.006067 0.029347 0.076939
v -0.006278 0.031493 0.076939
v -0.006904 0.033557 0.076939
v -0.007921 0.035458 0.076939
v -0.009289 0.037125 0.076939
v -0.010956 0.038493 0.076939
v -0.012858 0.039510 0.076939
v -0.014921 0.040136 0.076939
vt 0.375000 0.000000
vt 0.375000 0.250000
vt 0.625000 0.250000
vt 0.625000 0.000000
vt 0.375000 0.500000
vt 0.375000 0.750000
vt 0.625000 0.750000
vt 0.625000 0.500000
vt 0.125000 0.500000
vt 0.125000 0.750000
vt 0.875000 0.750000
vt 0.875000 0.500000
vt 0.875000 0.500000
vt 0.625000 0.500000
vt 0.375000 0.250000
vt 0.625000 0.250000
vt 0.375000 0.500000
vt 0.125000 0.500000
vt 0.000000 0.000000
vt 0.000000 0.000000
vt 0.000000 0.000000
vt 0.000000 0.000000
vt 0.000000 0.000000
vt 0.000000 0.000000
vt 0.000000 0.000000
vt 0.000000 0.000000
vt 0.000000 0.000000
vt 0.000000 0.000000
vt 0.000000 0.000000
vt 0.000000 0.000000
vt 0.000000 0.000000
vt 0.000000 0.000000
vt 0.000000 0.000000
vt 0.000000 0.000000
vt 0.000000 0.000000
vt 0.000000 0.000000
vt 0.000000 0.000000
vt 0.000000 0.000000
vt 0.000000 0.000000
vt 0.000000 0.000000
vt 0.000000 0.000000
vt 0.000000 0.000000
vt 0.000000 0.000000
vt 0.000000 0.000000
vt 0.000000 0.000000
vt 0.000000 0.000000
vt 0.000000 0.000000
vt 0.000000 0.000000
vt 0.000000 0.000000
vt 0.000000 0.000000
vt 0.000000 0.000000
vt 0.000000 0.000000
vt 0.000000 0.000000
vt 0.000000 0.000000
vt 0.000000 0.000000
vt 0.000000 0.000000
vt 0.000000 0.000000
vt 0.000000 0.000000
vt 0.000000 0.000000
vt 0.000000 0.000000
vt 0.000000 0.000000
vt 0.000000 0.000000
vt 0.000000 0.000000
vt 0.000000 0.000000
vt 0.000000 0.000000
vt 0.000000 0.000000
vt 0.000000 0.000000
vt 0.000000 0.000000
vt 0.000000 0.000000
vt 0.000000 0.000000
vt 0.000000 0.000000
vt 0.000000 0.000000
vt 0.000000 0.000000
vt 0.000000 0.000000
vt 0.000000 0.000000
vt 0.000000 0.000000
vt 0.000000 0.000000
vt 0.000000 0.000000
vt 0.000000 0.000000
vt 0.000000 0.000000
vt 0.000000 0.000000
vt 0.000000 0.000000
vn 0.0000 -0.6552 -0.7554
vn 0.0000 0.6552 -0.7554
vn 0.9680 0.0000 -0.2509
vn -0.9680 -0.0000 -0.2509
vn -1.0000 -0.0000 0.0000
vn 0.0000 -1.0000 0.0000
vn -0.0000 1.0000 0.0000
vn 1.0000 0.0000 0.0000
vn -0.0913 -0.9270 -0.3639
vn -0.2303 -0.7593 -0.6086
vn -0.3278 -0.6133 -0.7186
vn -0.4103 -0.4999 -0.7628
vn -0.4949 -0.4062 -0.7682
vn -0.5952 -0.3181 -0.7379
vn -0.7239 -0.2196 -0.6540
vn -0.8823 -0.0869 -0.4627
vn -0.8823 0.0869 -0.4627
vn -0.7239 0.2196 -0.6540
vn -0.5952 0.3181 -0.7379
vn -0.4949 0.4062 -0.7682
vn -0.4103 0.4999 -0.7628
vn -0.3278 0.6133 -0.7186
vn -0.2303 0.7593 -0.6086
vn -0.0913 0.9270 -0.3639
vn 0.0913 0.9270 -0.3639
vn 0.2303 0.7593 -0.6086
vn 0.3278 0.6133 -0.7186
vn 0.4103 0.4999 -0.7628
vn 0.4949 0.4062 -0.7682
vn 0.5952 0.3181 -0.7379
vn 0.7239 0.2196 -0.6540
vn 0.8823 0.0869 -0.4627
vn 0.8823 -0.0869 -0.4627
vn 0.7239 -0.2196 -0.6540
vn 0.5952 -0.3181 -0.7379
vn 0.4949 -0.4062 -0.7682
vn 0.4103 -0.4999 -0.7628
vn 0.3278 -0.6133 -0.7186
vn 0.2303 -0.7593 -0.6086
vn 0.0913 -0.9270 -0.3639
vn -0.9574 -0.0000 -0.2889
vn 0.0000 0.9881 -0.1536
vn 0.9574 0.0000 -0.2889
vn 0.0000 -0.9881 -0.1536
vn -0.0980 0.9952 0.0000
vn 0.6344 -0.7730 0.0000
vn -0.2903 -0.9569 0.0000
vn -0.2903 0.9569 0.0000
vn 0.7730 -0.6344 0.0000
vn -0.0980 -0.9952 0.0000
vn -0.4714 0.8819 0.0000
vn 0.8819 -0.4714 0.0000
vn -0.6344 0.7730 0.0000
vn 0.9569 -0.2903 0.0000
vn -0.7730 0.6344 0.0000
vn 0.9952 -0.0980 0.0000
vn -0.8819 0.4714 0.0000
vn 0.9952 0.0980 0.0000
vn -0.9569 0.2903 0.0000
vn 0.9569 0.2903 0.0000
vn -0.9952 0.0980 0.0000
vn 0.8819 0.4714 0.0000
vn -0.9952 -0.0980 0.0000
vn 0.7730 0.6344 0.0000
vn -0.9569 -0.2903 0.0000
vn 0.6344 0.7730 0.0000
vn -0.8819 -0.4714 0.0000
vn 0.4714 0.8819 0.0000
vn 0.0980 -0.9952 0.0000
vn -0.7730 -0.6344 0.0000
vn 0.2903 0.9569 0.0000
vn 0.2903 -0.9569 0.0000
vn -0.6344 -0.7730 0.0000
vn 0.0980 0.9952 0.0000
vn 0.4714 -0.8819 0.0000
vn -0.4714 -0.8819 0.0000
vn -0.0000 0.0000 -1.0000
vn -0.0000 0.0000 1.0000
usemtl None
s off
f 1/1/1 3/2/1 4/3/1 2/4/1
f 7/5/2 5/6/2 6/7/2 8/8/2
f 3/9/3 1/10/3 5/6/3 7/5/3
f 8/8/4 6/7/4 2/11/4 4/12/4
f 8/8/5 4/12/5 10/13/5 12/14/5
f 4/3/6 3/2/6 9/15/6 10/16/6
f 7/5/7 8/8/7 12/14/7 11/17/7
f 3/9/8 7/5/8 11/17/8 9/18/8
f 2/4/9 44/19/9 13/20/9
f 2/4/10 43/21/10 44/19/10
f 2/4/11 42/22/11 43/21/11
f 2/4/12 41/23/12 42/22/12
f 2/4/13 40/24/13 41/23/13
f 2/4/14 39/25/14 40/24/14
f 2/4/15 38/26/15 39/25/15
f 2/11/16 37/27/16 38/26/16
f 6/7/17 36/28/17 37/27/17
f 6/7/18 35/29/18 36/28/18
f 6/7/19 34/30/19 35/29/19
f 6/7/20 33/31/20 34/30/20
f 6/7/21 32/32/21 33/31/21
f 6/7/22 31/33/22 32/32/22
f 6/7/23 30/34/23 31/33/23
f 6/7/24 29/35/24 30/34/24
f 5/6/25 28/36/25 29/35/25
f 5/6/26 27/37/26 28/36/26
f 5/6/27 26/38/27 27/37/27
f 5/6/28 25/39/28 26/38/28
f 5/6/29 24/40/29 25/39/29
f 5/6/30 23/41/30 24/40/30
f 5/6/31 22/42/31 23/41/31
f 5/6/32 21/43/32 22/42/32
f 1/10/33 20/44/33 21/43/33
f 1/10/34 19/45/34 20/44/34
f 1/10/35 18/46/35 19/45/35
f 1/10/36 17/47/36 18/46/36
f 1/10/37 16/48/37 17/47/37
f 1/10/38 15/49/38 16/48/38
f 1/10/39 14/50/39 15/49/39
f 1/1/40 13/20/40 14/50/40
f 2/11/41 6/7/41 37/27/41
f 6/7/42 5/6/42 29/35/42
f 5/6/43 1/10/43 21/43/43
f 1/1/44 2/4/44 13/20/44
f 30/34/45 29/35/45 61/51/45 62/52/45
f 17/47/46 16/48/46 48/53/46 49/54/46
f 44/19/47 43/21/47 75/55/47 76/56/47
f 31/33/48 30/34/48 62/52/48 63/57/48
f 18/46/49 17/47/49 49/54/49 50/58/49
f 13/20/50 44/19/50 76/56/50 45/59/50
f 32/32/51 31/33/51 63/57/51 64/60/51
f 19/45/52 18/46/52 50/58/52 51/61/52
f 33/31/53 32/32/53 64/60/53 65/62/53
f 20/44/54 19/45/54 51/61/54 52/63/54
f 34/30/55 33/31/55 65/62/55 66/64/55
f 21/43/56 20/44/56 52/63/56 53/65/56
f 35/29/57 34/30/57 66/64/57 67/66/57
f 22/42/58 21/43/58 53/65/58 54/67/58
f 36/28/59 35/29/59 67/66/59 68/68/59
f 23/41/60 22/42/60 54/67/60 55/69/60
f 37/27/61 36/28/61 68/68/61 69/70/61
f 24/40/62 23/41/62 55/69/62 56/71/62
f 38/26/63 37/27/63 69/70/63 70/72/63
f 25/39/64 24/40/64 56/71/64 57/73/64
f 39/25/65 38/26/65 70/72/65 71/74/65
f 26/38/66 25/39/66 57/73/66 58/75/66
f 40/24/67 39/25/67 71/74/67 72/76/67
f 27/37/68 26/38/68 58/75/68 59/77/68
f 14/50/69 13/20/69 45/59/69 46/78/69
f 41/23/70 40/24/70 72/76/70 73/79/70
f 28/36/71 27/37/71 59/77/71 60/80/71
f 15/49/72 14/50/72 46/78/72 47/81/72
f 42/22/73 41/23/73 73/79/73 74/82/73
f 29/35/74 28/36/74 60/80/74 61/51/74
f 16/48/75 15/49/75 47/81/75 48/53/75
f 43/21/76 42/22/76 74/82/76 75/55/76
f 46/78/77 45/59/77 76/56/77 75/55/77 74/82/77 73/79/77 72/76/77 71/74/77 70/72/77 69/70/77 68/68/77 67/66/77 66/64/77 65/62/77 64/60/77 63/57/77 62/52/77 61/51/77 60/80/77 59/77/77 58/75/77 57/73/77 56/71/77 55/69/77 54/67/77 53/65/77 52/63/77 51/61/77 50/58/77 49/54/77 48/53/77 47/81/77
f 9/18/78 11/17/78 12/14/78 10/13/78
